<svg class="marks" width="528" height="347" viewBox="0 0 528 347" version="1.1" xmlns="http://www.w3.org/2000/svg" xmlns:xlink="http://www.w3.org/1999/xlink"><rect width="528" height="347" style="fill: floralwhite;"></rect><g transform="translate(59,10)"><g class="mark-group role-frame root"><g transform="translate(0,0)"><path class="background" d="M0.5,0.5h400v300h-400Z" style="fill: none; stroke: #ddd;"></path><g><g class="mark-group role-axis"><g transform="translate(0.5,300.5)"><path class="background" d="M0,0h0v0h0Z" style="pointer-events: none; fill: none;"></path><g><g class="mark-rule role-axis-grid" style="pointer-events: none;"><line transform="translate(0,-300)" x2="0" y2="300" style="fill: none; stroke: #ddd; stroke-width: 1; opacity: 1;"></line><line transform="translate(40,-300)" x2="0" y2="300" style="fill: none; stroke: #ddd; stroke-width: 1; opacity: 1;"></line><line transform="translate(80,-300)" x2="0" y2="300" style="fill: none; stroke: #ddd; stroke-width: 1; opacity: 1;"></line><line transform="translate(120,-300)" x2="0" y2="300" style="fill: none; stroke: #ddd; stroke-width: 1; opacity: 1;"></line><line transform="translate(160,-300)" x2="0" y2="300" style="fill: none; stroke: #ddd; stroke-width: 1; opacity: 1;"></line><line transform="translate(200,-300)" x2="0" y2="300" style="fill: none; stroke: #ddd; stroke-width: 1; opacity: 1;"></line><line transform="translate(240,-300)" x2="0" y2="300" style="fill: none; stroke: #ddd; stroke-width: 1; opacity: 1;"></line><line transform="translate(280,-300)" x2="0" y2="300" style="fill: none; stroke: #ddd; stroke-width: 1; opacity: 1;"></line><line transform="translate(320,-300)" x2="0" y2="300" style="fill: none; stroke: #ddd; stroke-width: 1; opacity: 1;"></line><line transform="translate(360,-300)" x2="0" y2="300" style="fill: none; stroke: #ddd; stroke-width: 1; opacity: 1;"></line><line transform="translate(400,-300)" x2="0" y2="300" style="fill: none; stroke: #ddd; stroke-width: 1; opacity: 1;"></line></g></g><path class="foreground" d="" style="pointer-events: none; display: none; fill: none;"></path></g></g><g class="mark-group role-axis"><g transform="translate(0.5,0.5)"><path class="background" d="M0,0h0v0h0Z" style="pointer-events: none; fill: none;"></path><g><g class="mark-rule role-axis-grid" style="pointer-events: none;"><line transform="translate(0,300)" x2="400" y2="0" style="fill: none; stroke: #ddd; stroke-width: 1; opacity: 1;"></line><line transform="translate(0,270)" x2="400" y2="0" style="fill: none; stroke: #ddd; stroke-width: 1; opacity: 1;"></line><line transform="translate(0,240)" x2="400" y2="0" style="fill: none; stroke: #ddd; stroke-width: 1; opacity: 1;"></line><line transform="translate(0,210)" x2="400" y2="0" style="fill: none; stroke: #ddd; stroke-width: 1; opacity: 1;"></line><line transform="translate(0,180)" x2="400" y2="0" style="fill: none; stroke: #ddd; stroke-width: 1; opacity: 1;"></line><line transform="translate(0,150)" x2="400" y2="0" style="fill: none; stroke: #ddd; stroke-width: 1; opacity: 1;"></line><line transform="translate(0,120)" x2="400" y2="0" style="fill: none; stroke: #ddd; stroke-width: 1; opacity: 1;"></line><line transform="translate(0,90)" x2="400" y2="0" style="fill: none; stroke: #ddd; stroke-width: 1; opacity: 1;"></line><line transform="translate(0,60)" x2="400" y2="0" style="fill: none; stroke: #ddd; stroke-width: 1; opacity: 1;"></line><line transform="translate(0,30)" x2="400" y2="0" style="fill: none; stroke: #ddd; stroke-width: 1; opacity: 1;"></line><line transform="translate(0,0)" x2="400" y2="0" style="fill: none; stroke: #ddd; stroke-width: 1; opacity: 1;"></line></g></g><path class="foreground" d="" style="pointer-events: none; display: none; fill: none;"></path></g></g><g class="mark-group role-axis"><g transform="translate(0.5,300.5)"><path class="background" d="M0,0h0v0h0Z" style="pointer-events: none; fill: none;"></path><g><g class="mark-rule role-axis-tick" style="pointer-events: none;"><line transform="translate(0,0)" x2="0" y2="5" style="fill: none; stroke: #888; stroke-width: 1; opacity: 1;"></line><line transform="translate(40,0)" x2="0" y2="5" style="fill: none; stroke: #888; stroke-width: 1; opacity: 1;"></line><line transform="translate(80,0)" x2="0" y2="5" style="fill: none; stroke: #888; stroke-width: 1; opacity: 1;"></line><line transform="translate(120,0)" x2="0" y2="5" style="fill: none; stroke: #888; stroke-width: 1; opacity: 1;"></line><line transform="translate(160,0)" x2="0" y2="5" style="fill: none; stroke: #888; stroke-width: 1; opacity: 1;"></line><line transform="translate(200,0)" x2="0" y2="5" style="fill: none; stroke: #888; stroke-width: 1; opacity: 1;"></line><line transform="translate(240,0)" x2="0" y2="5" style="fill: none; stroke: #888; stroke-width: 1; opacity: 1;"></line><line transform="translate(280,0)" x2="0" y2="5" style="fill: none; stroke: #888; stroke-width: 1; opacity: 1;"></line><line transform="translate(320,0)" x2="0" y2="5" style="fill: none; stroke: #888; stroke-width: 1; opacity: 1;"></line><line transform="translate(360,0)" x2="0" y2="5" style="fill: none; stroke: #888; stroke-width: 1; opacity: 1;"></line><line transform="translate(400,0)" x2="0" y2="5" style="fill: none; stroke: #888; stroke-width: 1; opacity: 1;"></line></g><g class="mark-text role-axis-label" style="pointer-events: none;"><text text-anchor="start" transform="translate(0,15)" style="font-family: sans-serif; font-size: 10px; fill: #000; opacity: 1;">0</text><text text-anchor="middle" transform="translate(40,15)" style="font-family: sans-serif; font-size: 10px; fill: #000; opacity: 1;">1</text><text text-anchor="middle" transform="translate(80,15)" style="font-family: sans-serif; font-size: 10px; fill: #000; opacity: 1;">2</text><text text-anchor="middle" transform="translate(120,15)" style="font-family: sans-serif; font-size: 10px; fill: #000; opacity: 1;">3</text><text text-anchor="middle" transform="translate(160,15)" style="font-family: sans-serif; font-size: 10px; fill: #000; opacity: 1;">4</text><text text-anchor="middle" transform="translate(200,15)" style="font-family: sans-serif; font-size: 10px; fill: #000; opacity: 1;">5</text><text text-anchor="middle" transform="translate(240,15)" style="font-family: sans-serif; font-size: 10px; fill: #000; opacity: 1;">6</text><text text-anchor="middle" transform="translate(280,15)" style="font-family: sans-serif; font-size: 10px; fill: #000; opacity: 1;">7</text><text text-anchor="middle" transform="translate(320,15)" style="font-family: sans-serif; font-size: 10px; fill: #000; opacity: 1;">8</text><text text-anchor="middle" transform="translate(360,15)" style="font-family: sans-serif; font-size: 10px; fill: #000; opacity: 1;">9</text><text text-anchor="end" transform="translate(400,15)" style="font-family: sans-serif; font-size: 10px; fill: #000; opacity: 1;">10</text></g><g class="mark-rule role-axis-domain" style="pointer-events: none;"><line transform="translate(0,0)" x2="400" y2="0" style="fill: none; stroke: #888; stroke-width: 1; opacity: 1;"></line></g><g class="mark-text role-axis-title" style="pointer-events: none;"><text text-anchor="middle" transform="translate(200,30)" style="font-family: sans-serif; font-size: 11px; font-weight: bold; fill: #000; opacity: 1;">x</text></g></g><path class="foreground" d="" style="pointer-events: none; display: none; fill: none;"></path></g></g><g class="mark-group role-axis"><g transform="translate(0.5,0.5)"><path class="background" d="M0,0h0v0h0Z" style="pointer-events: none; fill: none;"></path><g><g class="mark-rule role-axis-tick" style="pointer-events: none;"><line transform="translate(0,300)" x2="-5" y2="0" style="fill: none; stroke: #888; stroke-width: 1; opacity: 1;"></line><line transform="translate(0,270)" x2="-5" y2="0" style="fill: none; stroke: #888; stroke-width: 1; opacity: 1;"></line><line transform="translate(0,240)" x2="-5" y2="0" style="fill: none; stroke: #888; stroke-width: 1; opacity: 1;"></line><line transform="translate(0,210)" x2="-5" y2="0" style="fill: none; stroke: #888; stroke-width: 1; opacity: 1;"></line><line transform="translate(0,180)" x2="-5" y2="0" style="fill: none; stroke: #888; stroke-width: 1; opacity: 1;"></line><line transform="translate(0,150)" x2="-5" y2="0" style="fill: none; stroke: #888; stroke-width: 1; opacity: 1;"></line><line transform="translate(0,120)" x2="-5" y2="0" style="fill: none; stroke: #888; stroke-width: 1; opacity: 1;"></line><line transform="translate(0,90)" x2="-5" y2="0" style="fill: none; stroke: #888; stroke-width: 1; opacity: 1;"></line><line transform="translate(0,60)" x2="-5" y2="0" style="fill: none; stroke: #888; stroke-width: 1; opacity: 1;"></line><line transform="translate(0,30)" x2="-5" y2="0" style="fill: none; stroke: #888; stroke-width: 1; opacity: 1;"></line><line transform="translate(0,0)" x2="-5" y2="0" style="fill: none; stroke: #888; stroke-width: 1; opacity: 1;"></line></g><g class="mark-text role-axis-label" style="pointer-events: none;"><text text-anchor="end" transform="translate(-7,303)" style="font-family: sans-serif; font-size: 10px; fill: #000; opacity: 1;">-1.0</text><text text-anchor="end" transform="translate(-7,273)" style="font-family: sans-serif; font-size: 10px; fill: #000; opacity: 1;">-0.8</text><text text-anchor="end" transform="translate(-7,243)" style="font-family: sans-serif; font-size: 10px; fill: #000; opacity: 1;">-0.6</text><text text-anchor="end" transform="translate(-7,213)" style="font-family: sans-serif; font-size: 10px; fill: #000; opacity: 1;">-0.4</text><text text-anchor="end" transform="translate(-7,183)" style="font-family: sans-serif; font-size: 10px; fill: #000; opacity: 1;">-0.2</text><text text-anchor="end" transform="translate(-7,153)" style="font-family: sans-serif; font-size: 10px; fill: #000; opacity: 1;">0.0</text><text text-anchor="end" transform="translate(-7,123)" style="font-family: sans-serif; font-size: 10px; fill: #000; opacity: 1;">0.2</text><text text-anchor="end" transform="translate(-7,93.00000000000001)" style="font-family: sans-serif; font-size: 10px; fill: #000; opacity: 1;">0.4</text><text text-anchor="end" transform="translate(-7,62.999999999999986)" style="font-family: sans-serif; font-size: 10px; fill: #000; opacity: 1;">0.6</text><text text-anchor="end" transform="translate(-7,32.99999999999999)" style="font-family: sans-serif; font-size: 10px; fill: #000; opacity: 1;">0.8</text><text text-anchor="end" transform="translate(-7,3)" style="font-family: sans-serif; font-size: 10px; fill: #000; opacity: 1;">1.0</text></g><g class="mark-rule role-axis-domain" style="pointer-events: none;"><line transform="translate(0,300)" x2="0" y2="-300" style="fill: none; stroke: #888; stroke-width: 1; opacity: 1;"></line></g><g class="mark-text role-axis-title" style="pointer-events: none;"><text text-anchor="middle" transform="translate(-43,150) rotate(-90) translate(0,-2)" style="font-family: sans-serif; font-size: 11px; font-weight: bold; fill: #000; opacity: 1;">y</text></g></g><path class="foreground" d="" style="pointer-events: none; display: none; fill: none;"></path></g></g><g class="mark-group role-scope pathgroup"><g transform="translate(0,0)"><path class="background" d="M0,0h400v300h-400Z" style="fill: none;"></path><g><g class="mark-line role-mark marks"><path d="M0,150L4.040404040404041,134.8742369612843L8.080808080808081,119.9026715215972L12.121212121212121,105.23792933285385L16.161616161616163,91.0295081777505L20.202020202020204,77.4222539343098L24.242424242424242,64.55488396365516L28.28282828282828,52.55857297414403L32.323232323232325,41.55561577808091L36.36363636363637,31.658180573361395L40.40404040404041,22.967165459552508L44.44444444444445,15.57116984550655L48.484848484848484,9.545591234357287L52.52525252525253,4.951856593605042L56.56565656565656,1.8367961459874405L60.60606060606061,0.23216596494157749L64.64646464646465,0.15432424149646184L68.68686868686868,1.6040645228489803L72.72727272727273,4.566607622651464L76.76767676767676,9.011752285480323L80.80808080808082,14.8941830695567L84.84848484848484,22.15393230904874L88.8888888888889,30.71699144654265L92.92929292929293,40.49606550353304L96.96969696969697,51.39146299758368L101.01010101010101,63.292112234014084L105.05050505050507,76.0766936116615L109.09090909090908,89.61487639957552L113.13131313131312,103.76864737648846L117.17171717171718,118.39371778842107L121.21212121212122,133.34099428138052L125.25252525252526,148.45809881391986L129.2929292929293,163.59092205501125L133.33333333333331,178.58519443132272L137.37373737373736,193.28805880806487L141.41414141414143,207.54962877091685L145.45454545454547,221.224516623336L149.4949494949495,234.17331552228023L153.53535353535352,246.26402064290818L157.57575757575756,257.3733748843785L161.61616161616163,267.38812539813034L165.65656565656568,276.2061781291306L169.6969696969697,283.73763860027105L173.73737373737376,289.90572832977506L177.7777777777778,294.6475675393167L181.81818181818178,297.91481617363945L185.85858585858585,299.6741666968819L189.8989898989899,299.9076836418654L193.93939393939394,298.61298645085157L197.97979797979798,295.803273743825L202.02020202020202,291.5071887668999L206.06060606060606,285.7685273925205L210.10101010101013,278.64579164820776L214.14141414141415,270.21159332534546L218.18181818181816,260.55191374783703L222.22222222222223,249.76522724682337L226.26262626262624,237.9614972770853L230.3030303030303,225.2610554090867L234.34343434343435,211.79337462462942L238.38383838383837,197.69574942159278L242.42424242424244,183.1118961832595L246.46464646464645,168.19048808057516L250.50505050505052,153.08363944308888L254.54545454545453,137.94535504945773L258.5858585858586,122.92996014601324L262.62626262626264,108.19052719836641L266.66666666666663,93.87731541431712L270.7070707070707,80.13623894615213L274.7474747474747,67.1073793880391L278.7878787878788,54.92355773266402L282.82828282828285,43.708980345117254L286.86868686868684,33.57797275746292L290.90909090909093,24.63381419216106L294.9494949494949,16.967684695638162L298.989898989899,10.657735615312303L303.030303030303,5.7682928959764235L307.07070707070704,2.3492013174264637L311.11111111111114,0.43531635841878025L315.1515151515151,0.04614886708322885L319.1919191919192,1.1856661601516105L323.23232323232327,3.84225157866962L327.27272727272725,7.988822912496851L331.31313131313135,13.583108486330708L335.3535353535354,20.568078092732467L339.3939393939394,28.872524379065602L343.43434343434336,38.411788761473176L347.4747474747475,49.08862446566029L351.51515151515144,60.794187896325354L355.5555555555556,73.40914822885756L359.5959595959596,86.80490391170898L363.63636363636357,100.84489367797504L367.67676767676767,115.38598870124223L371.7171717171717,130.27995170355624L375.75757575757575,145.37494814082885L379.7979797979798,160.517094060097L383.83838383838383,175.5520248492145L387.8787878787879,190.32646888655762L391.9191919191919,204.6898100483833L395.95959595959596,218.49562314506608L400,231.60316663340546" style="fill: none; stroke: #4c78a8; stroke-width: 2; stroke-dasharray: 4,2;"></path></g></g><path class="foreground" d="" style="display: none; fill: none;"></path></g><g transform="translate(0,0)"><path class="background" d="M0,0h400v300h-400Z" style="fill: none;"></path><g><g class="mark-line role-mark marks"><path d="M0,0L4.040404040404041,0.7645776214754596L8.080808080808081,3.050516100045031L12.121212121212121,6.834511736978266L16.161616161616163,12.077989087158358L20.202020202020204,18.727494211376506L24.242424242424242,26.715239605474483L28.28282828282828,35.95979525112741L32.323232323232325,46.366918743439925L36.36363636363637,57.8305160327299L40.40404040404041,70.23372298634413L44.44444444444445,83.45009674466571L48.484848484848484,97.34490472619245L52.52525252525253,111.7764981410927L56.56565656565656,126.59775601113623L60.60606060606061,141.657584975129L64.64646464646465,156.80245959028284L68.68686868686868,171.8779874271203L72.72727272727273,186.73048300276187L76.76767676767676,201.2085345073381L80.80808080808082,215.16454735174284L84.84848484848484,228.45624880123128L88.8888888888889,240.9481383560753L92.92929292929293,252.5128690935605L96.96969696969697,263.03254588941667L101.01010101010101,272.3999272841336L105.05050505050507,280.5195187418948L109.09090909090908,287.3085461570454L113.13131313131312,292.6977996838092L117.17171717171718,296.6323392869459L121.21212121212122,299.07205482070407L125.25252525252526,299.9920749264186L129.2929292929293,299.3830205803009L133.33333333333331,297.2511007066619L137.37373737373736,293.6180488818502L141.41414141414143,288.5209017741715L145.45454545454547,282.01162157845096L149.4949494949495,274.15656629428287L153.53535353535352,265.03581324814354L157.57575757575756,254.742342755634L161.61616161616163,243.38109024589954L165.65656565656568,231.06787651121846L169.6969696969697,217.9282269871906L173.73737373737376,204.0960921002172L177.7777777777778,189.71248172752243L181.81818181818178,174.92402769053288L185.85858585858585,159.881488936087L189.8989898989899,144.73821464420928L193.93939393939394,129.64858093009212L197.97979797979798,114.76641707712326L202.02020202020202,100.24343734451747L206.06060606060606,86.22769433628415L210.10101010101013,72.86206969845558L214.14141414141415,60.28281753096702L218.18181818181816,48.61817536318054L222.22222222222223,37.98705685328281L226.26262626262624,28.497839538659562L230.3030303030303,20.24725999536512L234.34343434343435,13.319427669839602L238.38383838383837,7.784967436235391L242.42424242424244,3.7002996204399508L246.46464646464645,1.1070648304948971L250.50505050505052,0.031699456901801426L254.54545454545453,0.4851661703215493L258.5858585858586,2.462842164071888L262.62626262626264,5.9445662807214195L266.66666666666663,10.894844542353677L270.7070707070707,17.26321198924974L274.7474747474747,24.98474713827309L278.7878787878788,33.98073381637888L282.82828282828285,44.1594636222712L286.86868686868684,55.41717083562179L290.90909090909093,67.63909024303818L294.9494949494949,80.7006270969148L298.989898989899,94.46862728017797L303.030303030303,108.80273472839298L307.07070707070704,123.55682227117664L311.11111111111114,138.5804813063892L315.1515151515151,153.72055512081718L319.1919191919192,168.8227002261139L323.23232323232327,183.73295979316225L327.27272727272725,198.2993331446907L331.31313131313135,212.37332530615782L335.3535353535354,225.81146081821007L339.3939393939394,238.47674637835607L343.43434343434336,250.24006740114413L347.4747474747475,260.98150425979753L351.51515151515144,270.5915547910545L355.5555555555556,278.97225060054933L359.5959595959596,286.0381557887039L363.63636363636357,291.71723791575397L367.67676767676767,295.9516023269682L371.7171717171717,298.6980823520799L375.75757575757575,299.928679362222L379.7979797979798,299.63084819826116L383.83838383838383,297.80762506076985L387.8787878787879,294.4775965578799L391.9191919191919,289.6747102265537L395.95959595959596,283.44792845889026L400,275.86072936146786" style="fill: none; stroke: #4c78a8; stroke-width: 2; stroke-dasharray: 1,0;"></path></g></g><path class="foreground" d="" style="display: none; fill: none;"></path></g></g><g class="mark-group role-legend"><g transform="translate(420,0)"><path class="background" d="M0,0h44v40h-44Z" style="pointer-events: none; fill: none;"></path><g><g class="mark-group role-legend-entry"><g transform="translate(0,16)"><path class="background" d="M0,0h0v0h0Z" style="pointer-events: none; fill: none;"></path><g><g class="mark-group role-scope"><g transform="translate(0,0)"><path class="background" d="M0,0h40v11h-40Z" style="pointer-events: none; fill: none; opacity: 1;"></path><g><g class="mark-symbol role-legend-symbol" style="pointer-events: none;"><path transform="translate(6,6)" d="M-5,0L5,0" style="fill: none; stroke: #4c78a8; stroke-width: 1.5; stroke-dasharray: 1,0; opacity: 1;"></path></g><g class="mark-text role-legend-label" style="pointer-events: none;"><text text-anchor="start" transform="translate(16,9)" style="font-family: sans-serif; font-size: 10px; fill: #000; opacity: 1;">cos</text></g></g><path class="foreground" d="" style="pointer-events: none; display: none; fill: none;"></path></g><g transform="translate(0,13)"><path class="background" d="M0,0h40v11h-40Z" style="pointer-events: none; fill: none; opacity: 1;"></path><g><g class="mark-symbol role-legend-symbol" style="pointer-events: none;"><path transform="translate(6,6)" d="M-5,0L5,0" style="fill: none; stroke: #4c78a8; stroke-width: 1.5; stroke-dasharray: 4,2; opacity: 1;"></path></g><g class="mark-text role-legend-label" style="pointer-events: none;"><text text-anchor="start" transform="translate(16,9)" style="font-family: sans-serif; font-size: 10px; fill: #000; opacity: 1;">sin</text></g></g><path class="foreground" d="" style="pointer-events: none; display: none; fill: none;"></path></g></g></g><path class="foreground" d="" style="pointer-events: none; display: none; fill: none;"></path></g></g><g class="mark-text role-legend-title" style="pointer-events: none;"><text text-anchor="start" transform="translate(0,9)" style="font-family: sans-serif; font-size: 11px; font-weight: bold; fill: #000; opacity: 1;">label</text></g></g><path class="foreground" d="" style="pointer-events: none; display: none; fill: none;"></path></g></g></g><path class="foreground" d="" style="display: none; fill: none;"></path></g></g></g></svg>