<svg class="marks" width="728" height="547" viewBox="0 0 728 547" version="1.1" xmlns="http://www.w3.org/2000/svg" xmlns:xlink="http://www.w3.org/1999/xlink"><rect width="728" height="547" style="fill: floralwhite;"></rect><g transform="translate(59,10)"><g class="mark-group role-frame root"><g transform="translate(0,0)"><path class="background" d="M0.5,0.5h600v500h-600Z" style="fill: none; stroke: #ddd;"></path><g><g class="mark-group role-axis"><g transform="translate(0.5,500.5)"><path class="background" d="M0,0h0v0h0Z" style="pointer-events: none; fill: none;"></path><g><g class="mark-rule role-axis-grid" style="pointer-events: none;"><line transform="translate(0,-500)" x2="0" y2="500" style="fill: none; stroke: #ddd; stroke-width: 1; opacity: 1;"></line><line transform="translate(30,-500)" x2="0" y2="500" style="fill: none; stroke: #ddd; stroke-width: 1; opacity: 1;"></line><line transform="translate(60,-500)" x2="0" y2="500" style="fill: none; stroke: #ddd; stroke-width: 1; opacity: 1;"></line><line transform="translate(90,-500)" x2="0" y2="500" style="fill: none; stroke: #ddd; stroke-width: 1; opacity: 1;"></line><line transform="translate(120,-500)" x2="0" y2="500" style="fill: none; stroke: #ddd; stroke-width: 1; opacity: 1;"></line><line transform="translate(150,-500)" x2="0" y2="500" style="fill: none; stroke: #ddd; stroke-width: 1; opacity: 1;"></line><line transform="translate(180,-500)" x2="0" y2="500" style="fill: none; stroke: #ddd; stroke-width: 1; opacity: 1;"></line><line transform="translate(210,-500)" x2="0" y2="500" style="fill: none; stroke: #ddd; stroke-width: 1; opacity: 1;"></line><line transform="translate(240,-500)" x2="0" y2="500" style="fill: none; stroke: #ddd; stroke-width: 1; opacity: 1;"></line><line transform="translate(270,-500)" x2="0" y2="500" style="fill: none; stroke: #ddd; stroke-width: 1; opacity: 1;"></line><line transform="translate(300,-500)" x2="0" y2="500" style="fill: none; stroke: #ddd; stroke-width: 1; opacity: 1;"></line><line transform="translate(330,-500)" x2="0" y2="500" style="fill: none; stroke: #ddd; stroke-width: 1; opacity: 1;"></line><line transform="translate(360,-500)" x2="0" y2="500" style="fill: none; stroke: #ddd; stroke-width: 1; opacity: 1;"></line><line transform="translate(390,-500)" x2="0" y2="500" style="fill: none; stroke: #ddd; stroke-width: 1; opacity: 1;"></line><line transform="translate(420,-500)" x2="0" y2="500" style="fill: none; stroke: #ddd; stroke-width: 1; opacity: 1;"></line><line transform="translate(450,-500)" x2="0" y2="500" style="fill: none; stroke: #ddd; stroke-width: 1; opacity: 1;"></line><line transform="translate(480,-500)" x2="0" y2="500" style="fill: none; stroke: #ddd; stroke-width: 1; opacity: 1;"></line><line transform="translate(510,-500)" x2="0" y2="500" style="fill: none; stroke: #ddd; stroke-width: 1; opacity: 1;"></line><line transform="translate(540,-500)" x2="0" y2="500" style="fill: none; stroke: #ddd; stroke-width: 1; opacity: 1;"></line><line transform="translate(570,-500)" x2="0" y2="500" style="fill: none; stroke: #ddd; stroke-width: 1; opacity: 1;"></line><line transform="translate(600,-500)" x2="0" y2="500" style="fill: none; stroke: #ddd; stroke-width: 1; opacity: 1;"></line></g></g><path class="foreground" d="" style="pointer-events: none; display: none; fill: none;"></path></g></g><g class="mark-group role-axis"><g transform="translate(0.5,0.5)"><path class="background" d="M0,0h0v0h0Z" style="pointer-events: none; fill: none;"></path><g><g class="mark-rule role-axis-grid" style="pointer-events: none;"><line transform="translate(0,500)" x2="600" y2="0" style="fill: none; stroke: #ddd; stroke-width: 1; opacity: 1;"></line><line transform="translate(0,450)" x2="600" y2="0" style="fill: none; stroke: #ddd; stroke-width: 1; opacity: 1;"></line><line transform="translate(0,400)" x2="600" y2="0" style="fill: none; stroke: #ddd; stroke-width: 1; opacity: 1;"></line><line transform="translate(0,350)" x2="600" y2="0" style="fill: none; stroke: #ddd; stroke-width: 1; opacity: 1;"></line><line transform="translate(0,300)" x2="600" y2="0" style="fill: none; stroke: #ddd; stroke-width: 1; opacity: 1;"></line><line transform="translate(0,250)" x2="600" y2="0" style="fill: none; stroke: #ddd; stroke-width: 1; opacity: 1;"></line><line transform="translate(0,200)" x2="600" y2="0" style="fill: none; stroke: #ddd; stroke-width: 1; opacity: 1;"></line><line transform="translate(0,150)" x2="600" y2="0" style="fill: none; stroke: #ddd; stroke-width: 1; opacity: 1;"></line><line transform="translate(0,100)" x2="600" y2="0" style="fill: none; stroke: #ddd; stroke-width: 1; opacity: 1;"></line><line transform="translate(0,50)" x2="600" y2="0" style="fill: none; stroke: #ddd; stroke-width: 1; opacity: 1;"></line><line transform="translate(0,0)" x2="600" y2="0" style="fill: none; stroke: #ddd; stroke-width: 1; opacity: 1;"></line></g></g><path class="foreground" d="" style="pointer-events: none; display: none; fill: none;"></path></g></g><g class="mark-group role-axis"><g transform="translate(0.5,500.5)"><path class="background" d="M0,0h0v0h0Z" style="pointer-events: none; fill: none;"></path><g><g class="mark-rule role-axis-tick" style="pointer-events: none;"><line transform="translate(0,0)" x2="0" y2="5" style="fill: none; stroke: #888; stroke-width: 1; opacity: 1;"></line><line transform="translate(30,0)" x2="0" y2="5" style="fill: none; stroke: #888; stroke-width: 1; opacity: 1;"></line><line transform="translate(60,0)" x2="0" y2="5" style="fill: none; stroke: #888; stroke-width: 1; opacity: 1;"></line><line transform="translate(90,0)" x2="0" y2="5" style="fill: none; stroke: #888; stroke-width: 1; opacity: 1;"></line><line transform="translate(120,0)" x2="0" y2="5" style="fill: none; stroke: #888; stroke-width: 1; opacity: 1;"></line><line transform="translate(150,0)" x2="0" y2="5" style="fill: none; stroke: #888; stroke-width: 1; opacity: 1;"></line><line transform="translate(180,0)" x2="0" y2="5" style="fill: none; stroke: #888; stroke-width: 1; opacity: 1;"></line><line transform="translate(210,0)" x2="0" y2="5" style="fill: none; stroke: #888; stroke-width: 1; opacity: 1;"></line><line transform="translate(240,0)" x2="0" y2="5" style="fill: none; stroke: #888; stroke-width: 1; opacity: 1;"></line><line transform="translate(270,0)" x2="0" y2="5" style="fill: none; stroke: #888; stroke-width: 1; opacity: 1;"></line><line transform="translate(300,0)" x2="0" y2="5" style="fill: none; stroke: #888; stroke-width: 1; opacity: 1;"></line><line transform="translate(330,0)" x2="0" y2="5" style="fill: none; stroke: #888; stroke-width: 1; opacity: 1;"></line><line transform="translate(360,0)" x2="0" y2="5" style="fill: none; stroke: #888; stroke-width: 1; opacity: 1;"></line><line transform="translate(390,0)" x2="0" y2="5" style="fill: none; stroke: #888; stroke-width: 1; opacity: 1;"></line><line transform="translate(420,0)" x2="0" y2="5" style="fill: none; stroke: #888; stroke-width: 1; opacity: 1;"></line><line transform="translate(450,0)" x2="0" y2="5" style="fill: none; stroke: #888; stroke-width: 1; opacity: 1;"></line><line transform="translate(480,0)" x2="0" y2="5" style="fill: none; stroke: #888; stroke-width: 1; opacity: 1;"></line><line transform="translate(510,0)" x2="0" y2="5" style="fill: none; stroke: #888; stroke-width: 1; opacity: 1;"></line><line transform="translate(540,0)" x2="0" y2="5" style="fill: none; stroke: #888; stroke-width: 1; opacity: 1;"></line><line transform="translate(570,0)" x2="0" y2="5" style="fill: none; stroke: #888; stroke-width: 1; opacity: 1;"></line><line transform="translate(600,0)" x2="0" y2="5" style="fill: none; stroke: #888; stroke-width: 1; opacity: 1;"></line></g><g class="mark-text role-axis-label" style="pointer-events: none;"><text text-anchor="start" transform="translate(0,15)" style="font-family: sans-serif; font-size: 10px; fill: #000; opacity: 1;">0.0</text><text text-anchor="middle" transform="translate(30,15)" style="font-family: sans-serif; font-size: 10px; fill: #000; opacity: 0;">0.5</text><text text-anchor="middle" transform="translate(60,15)" style="font-family: sans-serif; font-size: 10px; fill: #000; opacity: 1;">1.0</text><text text-anchor="middle" transform="translate(90,15)" style="font-family: sans-serif; font-size: 10px; fill: #000; opacity: 0;">1.5</text><text text-anchor="middle" transform="translate(120,15)" style="font-family: sans-serif; font-size: 10px; fill: #000; opacity: 1;">2.0</text><text text-anchor="middle" transform="translate(150,15)" style="font-family: sans-serif; font-size: 10px; fill: #000; opacity: 0;">2.5</text><text text-anchor="middle" transform="translate(180,15)" style="font-family: sans-serif; font-size: 10px; fill: #000; opacity: 1;">3.0</text><text text-anchor="middle" transform="translate(210,15)" style="font-family: sans-serif; font-size: 10px; fill: #000; opacity: 0;">3.5</text><text text-anchor="middle" transform="translate(240,15)" style="font-family: sans-serif; font-size: 10px; fill: #000; opacity: 1;">4.0</text><text text-anchor="middle" transform="translate(270,15)" style="font-family: sans-serif; font-size: 10px; fill: #000; opacity: 0;">4.5</text><text text-anchor="middle" transform="translate(300,15)" style="font-family: sans-serif; font-size: 10px; fill: #000; opacity: 1;">5.0</text><text text-anchor="middle" transform="translate(330,15)" style="font-family: sans-serif; font-size: 10px; fill: #000; opacity: 0;">5.5</text><text text-anchor="middle" transform="translate(360,15)" style="font-family: sans-serif; font-size: 10px; fill: #000; opacity: 1;">6.0</text><text text-anchor="middle" transform="translate(390,15)" style="font-family: sans-serif; font-size: 10px; fill: #000; opacity: 0;">6.5</text><text text-anchor="middle" transform="translate(420,15)" style="font-family: sans-serif; font-size: 10px; fill: #000; opacity: 1;">7.0</text><text text-anchor="middle" transform="translate(450,15)" style="font-family: sans-serif; font-size: 10px; fill: #000; opacity: 0;">7.5</text><text text-anchor="middle" transform="translate(480,15)" style="font-family: sans-serif; font-size: 10px; fill: #000; opacity: 1;">8.0</text><text text-anchor="middle" transform="translate(510,15)" style="font-family: sans-serif; font-size: 10px; fill: #000; opacity: 0;">8.5</text><text text-anchor="middle" transform="translate(540,15)" style="font-family: sans-serif; font-size: 10px; fill: #000; opacity: 1;">9.0</text><text text-anchor="middle" transform="translate(570,15)" style="font-family: sans-serif; font-size: 10px; fill: #000; opacity: 0;">9.5</text><text text-anchor="end" transform="translate(600,15)" style="font-family: sans-serif; font-size: 10px; fill: #000; opacity: 1;">10.0</text></g><g class="mark-rule role-axis-domain" style="pointer-events: none;"><line transform="translate(0,0)" x2="600" y2="0" style="fill: none; stroke: #888; stroke-width: 1; opacity: 1;"></line></g><g class="mark-text role-axis-title" style="pointer-events: none;"><text text-anchor="middle" transform="translate(300,30)" style="font-family: sans-serif; font-size: 11px; font-weight: bold; fill: #000; opacity: 1;">x</text></g></g><path class="foreground" d="" style="pointer-events: none; display: none; fill: none;"></path></g></g><g class="mark-group role-axis"><g transform="translate(0.5,0.5)"><path class="background" d="M0,0h0v0h0Z" style="pointer-events: none; fill: none;"></path><g><g class="mark-rule role-axis-tick" style="pointer-events: none;"><line transform="translate(0,500)" x2="-5" y2="0" style="fill: none; stroke: #888; stroke-width: 1; opacity: 1;"></line><line transform="translate(0,450)" x2="-5" y2="0" style="fill: none; stroke: #888; stroke-width: 1; opacity: 1;"></line><line transform="translate(0,400)" x2="-5" y2="0" style="fill: none; stroke: #888; stroke-width: 1; opacity: 1;"></line><line transform="translate(0,350)" x2="-5" y2="0" style="fill: none; stroke: #888; stroke-width: 1; opacity: 1;"></line><line transform="translate(0,300)" x2="-5" y2="0" style="fill: none; stroke: #888; stroke-width: 1; opacity: 1;"></line><line transform="translate(0,250)" x2="-5" y2="0" style="fill: none; stroke: #888; stroke-width: 1; opacity: 1;"></line><line transform="translate(0,200)" x2="-5" y2="0" style="fill: none; stroke: #888; stroke-width: 1; opacity: 1;"></line><line transform="translate(0,150)" x2="-5" y2="0" style="fill: none; stroke: #888; stroke-width: 1; opacity: 1;"></line><line transform="translate(0,100)" x2="-5" y2="0" style="fill: none; stroke: #888; stroke-width: 1; opacity: 1;"></line><line transform="translate(0,50)" x2="-5" y2="0" style="fill: none; stroke: #888; stroke-width: 1; opacity: 1;"></line><line transform="translate(0,0)" x2="-5" y2="0" style="fill: none; stroke: #888; stroke-width: 1; opacity: 1;"></line></g><g class="mark-text role-axis-label" style="pointer-events: none;"><text text-anchor="end" transform="translate(-7,503)" style="font-family: sans-serif; font-size: 10px; fill: #000; opacity: 1;">-1.0</text><text text-anchor="end" transform="translate(-7,453)" style="font-family: sans-serif; font-size: 10px; fill: #000; opacity: 1;">-0.8</text><text text-anchor="end" transform="translate(-7,403)" style="font-family: sans-serif; font-size: 10px; fill: #000; opacity: 1;">-0.6</text><text text-anchor="end" transform="translate(-7,353)" style="font-family: sans-serif; font-size: 10px; fill: #000; opacity: 1;">-0.4</text><text text-anchor="end" transform="translate(-7,303)" style="font-family: sans-serif; font-size: 10px; fill: #000; opacity: 1;">-0.2</text><text text-anchor="end" transform="translate(-7,253)" style="font-family: sans-serif; font-size: 10px; fill: #000; opacity: 1;">0.0</text><text text-anchor="end" transform="translate(-7,203)" style="font-family: sans-serif; font-size: 10px; fill: #000; opacity: 1;">0.2</text><text text-anchor="end" transform="translate(-7,153.00000000000003)" style="font-family: sans-serif; font-size: 10px; fill: #000; opacity: 1;">0.4</text><text text-anchor="end" transform="translate(-7,102.99999999999997)" style="font-family: sans-serif; font-size: 10px; fill: #000; opacity: 1;">0.6</text><text text-anchor="end" transform="translate(-7,52.999999999999986)" style="font-family: sans-serif; font-size: 10px; fill: #000; opacity: 1;">0.8</text><text text-anchor="end" transform="translate(-7,3)" style="font-family: sans-serif; font-size: 10px; fill: #000; opacity: 1;">1.0</text></g><g class="mark-rule role-axis-domain" style="pointer-events: none;"><line transform="translate(0,500)" x2="0" y2="-500" style="fill: none; stroke: #888; stroke-width: 1; opacity: 1;"></line></g><g class="mark-text role-axis-title" style="pointer-events: none;"><text text-anchor="middle" transform="translate(-43,250) rotate(-90) translate(0,-2)" style="font-family: sans-serif; font-size: 11px; font-weight: bold; fill: #000; opacity: 1;">y</text></g></g><path class="foreground" d="" style="pointer-events: none; display: none; fill: none;"></path></g></g><g class="mark-group role-scope pathgroup"><g transform="translate(0,0)"><path class="background" d="M0,0h600v500h-600Z" style="fill: none;"></path><g><g class="mark-line role-mark marks"><path d="M0,250L6.060606060606061,224.79039493547387L12.121212121212123,199.83778586932866L18.181818181818183,175.39654888808974L24.242424242424246,151.7158469629175L30.303030303030308,129.0370898905163L36.36363636363637,107.59147327275859L42.42424242424242,87.59762162357337L48.48484848484849,69.25935963013485L54.54545454545455,52.763634288935656L60.606060606060616,38.27860909925418L66.66666666666667,25.951949742510916L72.72727272727273,15.909318723928811L78.7878787878788,8.25309432267507L84.84848484848484,3.0613269099790674L90.9090909090909,0.38694327490262914L96.96969696969698,0.25720706916076974L103.03030303030303,2.673440871414967L109.0909090909091,7.611012704419107L115.15151515151514,15.019587142467206L121.21212121212123,24.823638449261164L127.27272727272727,36.92322051508123L133.33333333333334,51.194985744237755L139.3939393939394,67.4934425058884L145.45454545454547,85.65243832930614L151.51515151515153,105.48685372335682L157.5757575757576,126.79448935276916L163.63636363636363,149.35812733262588L169.6969696969697,172.94774562748077L175.75757575757575,197.32286298070179L181.8181818181818,222.23499046896757L187.87878787878788,247.43016468986644L193.93939393939397,272.65153675835205L200,297.6419907188712L206.06060606060606,322.1467646801081L212.12121212121212,345.91604795152807L218.1818181818182,368.70752770556L224.24242424242425,390.2888592038004L230.30303030303028,410.4400344048469L236.36363636363635,428.95562480729757L242.42424242424246,445.64687566355053L248.48484848484853,460.3436302152176L254.54545454545453,472.89606433378503L260.6060606060606,483.1762138829584L266.6666666666667,491.0792792321945L272.7272727272727,496.52469362273246L278.7878787878788,499.45694449480317L284.8484848484849,499.84613940310896L290.90909090909093,497.6883107514193L296.969696969697,493.0054562397084L303.03030303030306,485.8453146114998L309.09090909090907,476.2808789875342L315.1515151515152,464.40965274701296L321.2121212121212,450.3526555422425L327.27272727272725,434.25318957972837L333.33333333333337,416.2753787447056L339.3939393939394,396.6024954618088L345.4545454545455,375.43509234847784L351.5151515151515,352.9889577077157L357.57575757575756,329.49291570265467L363.6363636363636,305.1864936387658L369.6969696969697,280.31748013429194L375.75757575757575,255.1393990718148L381.8181818181818,229.90892508242956L387.87878787878793,204.88326691002206L393.93939393939394,180.31754533061067L400,156.46219235719522L406.06060606060606,133.5603982435869L412.1212121212121,111.8456323133985L418.1818181818182,91.53926288777336L424.24242424242425,72.84830057519542L430.30303030303025,55.96328792910488L436.3636363636364,41.05635698693511L442.42424242424244,28.279474492730273L448.4848484848485,17.762892692187172L454.54545454545456,9.61382149329404L460.60606060606057,3.915335529044106L466.6666666666667,0.7255272640313004L472.7272727272727,0.07691477847204808L478.7878787878788,1.9761102669193509L484.84848484848493,6.403752631116033L490.9090909090909,13.31470485416142L496.96969696969705,22.638514143884514L503.03030303030306,34.280130154554115L509.09090909090907,48.12087396510933L515.1515151515151,64.01964793578863L521.2121212121212,81.81437410943381L527.2727272727273,101.3236464938756L533.3333333333334,122.34858038142926L539.3939393939394,144.6748398528483L545.4545454545454,168.07482279662506L551.5151515151515,192.30998116873704L557.5757575757576,217.1332528392604L563.6363636363636,242.29158023471476L569.6969696969697,267.52849010016166L575.7575757575758,292.58670808202413L581.8181818181819,317.210781477596L587.8787878787879,341.1496834139722L593.939393939394,364.15937190844346L600,386.00527772234244" style="fill: none; stroke: #4c78a8; stroke-width: 2; stroke-dasharray: 4,2;"></path></g></g><path class="foreground" d="" style="display: none; fill: none;"></path></g><g transform="translate(0,0)"><path class="background" d="M0,0h600v500h-600Z" style="fill: none;"></path><g><g class="mark-line role-mark marks"><path d="M0,0L6.060606060606061,1.2742960357924327L12.121212121212123,5.0841935000750516L18.181818181818183,11.390852894963777L24.242424242424246,20.129981811930598L30.303030303030308,31.212490352294175L36.36363636363637,44.525399342457476L42.42424242424242,59.932992085212355L48.48484848484849,77.27819790573321L54.54545454545455,96.38419338788317L60.606060606060616,117.05620497724023L66.66666666666667,139.08349457444285L72.72727272727273,162.24150787698744L78.7878787878788,186.29416356848782L84.84848484848484,210.99626001856038L90.9090909090909,236.09597495854834L96.96969696969698,261.3374326504714L103.03030303030303,286.46331237853383L109.0909090909091,311.2174716712698L115.15151515151514,335.34755751223014L121.21212121212123,358.6075789195714L127.27272727272727,380.7604146687188L133.33333333333334,401.5802305934588L139.3939393939394,420.85478182260084L145.45454545454547,438.38757648236117L151.51515151515153,453.9998788068893L157.5757575757576,467.53253123649137L163.63636363636363,478.84757692840896L169.6969696969697,487.829666139682L175.75757575757575,494.3872321449099L181.8181818181818,498.4534247011735L187.87878787878788,499.98679154403095L193.93939393939397,498.9717009671682L200,495.41850117776977L206.06060606060606,489.36341480308363L212.12121212121212,480.8681696236191L218.1818181818182,470.0193692974183L224.24242424242425,456.9276104904714L230.30303030303028,441.72635541357255L236.36363636363635,424.57057125939L242.42424242424246,405.63515040983253L248.48484848484853,385.1131275186974L254.54545454545453,363.2137116453177L260.6060606060606,340.160153500362L266.6666666666667,316.1874695458707L272.7272727272727,291.54004615088814L278.7878787878788,266.4691482268117L284.8484848484849,241.23035774034878L290.90909090909093,216.08096821682022L296.969696969697,191.27736179520542L303.03030303030306,167.07239557419578L309.09090909090907,143.7128238938069L315.1515151515152,121.43678283075931L321.2121212121212,100.4713625516117L327.27272727272725,81.03029227196757L333.33333333333337,63.31176142213801L339.3939393939394,47.496399231099275L345.4545454545455,33.74543332560853L351.5151515151515,22.199046116399334L357.57575757575756,12.974945727058984L363.6363636363636,6.167166034066584L369.6969696969697,1.8451080508248285L375.75757575757575,0.05283242816966904L381.8181818181818,0.8086102838692488L387.87878787878793,4.104736940119813L393.93939393939394,9.907610467869032L400,18.158074237256127L406.06060606060606,28.772019982082895L412.1212121212121,41.64124523045515L418.1818181818182,56.63455636063147L424.24242424242425,73.59910603711867L430.30303030303025,92.36195139270298L436.3636363636364,112.7318170717303L442.42424242424244,134.50104516152467L448.4848484848485,157.44771213362995L454.54545454545456,181.3378912139883L460.60606060606057,205.9280371186277L466.6666666666667,230.967468843982L472.7272727272727,256.20092520136194L478.7878787878788,281.37116704352314L484.84848484848493,306.2215996552704L490.9090909090909,330.4988885744845L496.96969696969705,353.9555421769297L503.03030303030306,376.3524346970168L509.09090909090907,397.4612439639268L515.1515151515151,417.06677900190687L521.2121212121212,434.9691737663293L527.2727272727273,450.98592465175744L533.3333333333334,464.95375100091553L539.3939393939394,476.7302596478398L545.4545454545454,486.1953965262567L551.5151515151515,493.252670544947L557.5757575757576,497.8301372534665L563.6363636363636,499.88113227037L569.6969696969697,499.3847469971019L575.7575757575758,496.34604176794977L581.8181818181819,490.79599426313314L587.8787878787879,482.7911837109229L593.939393939394,472.4132140981504L600,459.76788226911316" style="fill: none; stroke: #4c78a8; stroke-width: 2; stroke-dasharray: 1,0;"></path></g></g><path class="foreground" d="" style="display: none; fill: none;"></path></g></g><g class="mark-group role-legend"><g transform="translate(620,0)"><path class="background" d="M0,0h44v40h-44Z" style="pointer-events: none; fill: none;"></path><g><g class="mark-group role-legend-entry"><g transform="translate(0,16)"><path class="background" d="M0,0h0v0h0Z" style="pointer-events: none; fill: none;"></path><g><g class="mark-group role-scope"><g transform="translate(0,0)"><path class="background" d="M0,0h40v11h-40Z" style="pointer-events: none; fill: none; opacity: 1;"></path><g><g class="mark-symbol role-legend-symbol" style="pointer-events: none;"><path transform="translate(6,6)" d="M-5,0L5,0" style="fill: none; stroke: #4c78a8; stroke-width: 1.5; stroke-dasharray: 1,0; opacity: 1;"></path></g><g class="mark-text role-legend-label" style="pointer-events: none;"><text text-anchor="start" transform="translate(16,9)" style="font-family: sans-serif; font-size: 10px; fill: #000; opacity: 1;">cos</text></g></g><path class="foreground" d="" style="pointer-events: none; display: none; fill: none;"></path></g><g transform="translate(0,13)"><path class="background" d="M0,0h40v11h-40Z" style="pointer-events: none; fill: none; opacity: 1;"></path><g><g class="mark-symbol role-legend-symbol" style="pointer-events: none;"><path transform="translate(6,6)" d="M-5,0L5,0" style="fill: none; stroke: #4c78a8; stroke-width: 1.5; stroke-dasharray: 4,2; opacity: 1;"></path></g><g class="mark-text role-legend-label" style="pointer-events: none;"><text text-anchor="start" transform="translate(16,9)" style="font-family: sans-serif; font-size: 10px; fill: #000; opacity: 1;">sin</text></g></g><path class="foreground" d="" style="pointer-events: none; display: none; fill: none;"></path></g></g></g><path class="foreground" d="" style="pointer-events: none; display: none; fill: none;"></path></g></g><g class="mark-text role-legend-title" style="pointer-events: none;"><text text-anchor="start" transform="translate(0,9)" style="font-family: sans-serif; font-size: 11px; font-weight: bold; fill: #000; opacity: 1;">label</text></g></g><path class="foreground" d="" style="pointer-events: none; display: none; fill: none;"></path></g></g></g><path class="foreground" d="" style="display: none; fill: none;"></path></g></g></g></svg>